#N canvas 63 46 1427 851 12;
#X obj 388 327 loadbang;
#X obj 388 376 soundfiler;
#X floatatom 388 413 10 0 0 0 - - -;
#X obj 768 511 / 1000;
#X text 1485 459 creation argument initializes array name;
#X obj 1460 563 *~;
#X obj 1501 565 line~;
#X msg 1501 513 0.1 100;
#X msg 1517 538 0 100;
#X text 1555 513 on;
#X text 1556 537 off;
#X text 1544 560 envelope;
#X msg 1395 382 0 44100;
#X text 1453 380 play starting at beginning for 44100 samples;
#X msg 1400 407 44100 1000;
#X text 1478 406 play from 44100 through 45099 (1000 samples);
#X msg 1407 432 stop;
#X text 1443 433 stop playing (outputs zeros when stopped);
#X obj 1477 486 bng 15 250 50 0 empty empty empty 17 7 0 10 -262144
-1 -1;
#X text 1495 485 <= bang when finished playing the table;
#X obj 584 88 tgl 25 0 empty empty empty 17 7 0 10 -262144 -1 -1 1
1;
#X msg 584 123 \; pd dsp \$1 \; start \$1;
#X obj 174 672 *~;
#X obj 1368 459 tabplay~ foo;
#X obj 331 597 line~;
#X msg 331 568 \$1 20;
#X obj 334 527 hsl 128 15 0 1 0 0 empty empty empty -2 -8 0 10 -262144
-1 -1 9000 1;
#X obj 171 726 dac~;
#X msg 536 311 read -resize flint_.aif foo;
#X obj 744 155 textfile;
#X msg 744 73 read setup.txt;
#X msg 839 115 rewind;
#X text 892 114 go to beginning;
#X msg 851 142 bang;
#X text 886 141 output one line as a list;
#X obj 743 196 print;
#X obj 802 190 print textfile_done;
#X obj 1304 239 oscparse;
#X obj 1304 201 netreceive -u -b;
#X msg 1304 146 listen 5000;
#X msg 1316 174 listen 0;
#X msg 68 120 connect localhost 8888 7777;
#X obj 68 163 netsend -u -b, f 18;
#X msg 332 65 1;
#X obj 332 98 oscformat bar;
#X obj 194 255 print osc-in;
#N canvas 0 23 450 300 send-msg 0;
#X obj 141 67 inlet;
#X obj 141 175 outlet;
#X obj 140 100 list prepend send;
#X obj 140 125 list trim;
#X connect 0 0 2 0;
#X connect 2 0 3 0;
#X connect 3 0 1 0;
#X restore 332 129 pd send-msg;
#N canvas 0 23 450 300 recv-msg 0;
#X obj 141 67 inlet;
#X obj 141 175 outlet;
#X obj 140 125 list trim;
#X obj 140 100 oscparse;
#X connect 0 0 3 0;
#X connect 2 0 1 0;
#X connect 3 0 2 0;
#X restore 188 216 pd recv-msg;
#X floatatom 389 69 5 0 0 0 - - -;
#X floatatom 377 555 5 0 0 0 - - -;
#X obj 829 752 tabread4~ foo;
#X obj 829 693 vline~;
#X obj 171 478 tabplay~ foo;
#X obj 952 557 loadbang;
#X obj 952 606 soundfiler;
#X msg 953 581 read -resize CELESTA_A#3.aif foo;
#X floatatom 952 643 10 0 0 0 - - -;
#X obj 1092 668 samplerate~;
#X obj 1092 638 r pd-dsp-started;
#X floatatom 1092 694 10 0 0 0 - - -;
#X obj 952 687 /;
#X floatatom 952 722 10 0 0 0 - - -;
#X obj 1093 724 * 0.001;
#X obj 953 758 pack;
#X msg 823 640 197510 4478.68;
#X msg 952 788 set \$2 \$1;
#X msg 908 521 read -resize flint_.aif foo;
#X obj 248 517 bng 15 250 50 0 empty empty empty 17 7 0 10 -262144
-1 -1;
#X obj 171 410 pack 0 f;
#X obj 171 378 bng 15 250 50 0 empty empty empty 17 7 0 10 -262144
-1 -1;
#X obj 741 759 snapshot~;
#X floatatom 741 786 0 0 0 0 - - -;
#X obj 751 732 metro 100;
#X obj 751 707 r start;
#X obj 1264 619 hsl 128 15 0 1 0 0 empty empty empty -2 -8 0 10 -262144
-1 -1 0 1;
#X msg 1264 587 set \$1;
#X obj 1327 579 /;
#X obj 1262 653 *;
#X floatatom 1262 677 5 0 0 0 - - -;
#X obj 68 87 loadbang;
#X obj 870 269 midiin;
#X obj 870 319 midiout;
#X obj 963 313 midifile;
#X obj 966 283 cyclone/seq;
#X obj 170 316 route play vol select;
#X obj 820 607 t b 0;
#X obj 821 573 bng 15 250 50 0 empty empty empty 17 7 0 10 -262144
-1 -1;
#X text 707 394 could be possible to loop differet sections of a song
and jump to the next section \, but the sustain will be cut off in
that case - to get better resullts maybe interesting to use a soft
synth? and send MIDI messages from Pd \, or loop different parts of
Repear song \, and send OSC control messages from Pd?;
#N canvas 0 23 1093 600 list 0;
#N canvas 603 179 1071 624 list 0;
#X obj 68 145 list split 1, f 16;
#X obj 174 178 print done;
#X obj 68 112 list;
#X msg 193 55 one two three;
#X obj 119 74 bng 15 250 50 0 empty empty empty 17 7 0 10 -262144 -1
-1;
#X msg 616 202 three;
#X obj 609 142 list prepend set;
#X obj 69 224 list trim;
#X obj 610 175 list trim;
#X obj 72 399 outlet;
#X obj 67 29 inlet;
#X connect 0 0 7 0;
#X connect 0 1 2 1;
#X connect 0 2 1 0;
#X connect 2 0 0 0;
#X connect 3 0 2 0;
#X connect 4 0 2 0;
#X connect 6 0 8 0;
#X connect 7 0 9 0;
#X connect 8 0 5 0;
#X connect 10 0 2 0;
#X restore 465 93 pd list sequence;
#X msg 482 25 track1.wav track2.wav track3.wav;
#X obj 431 32 bng 15 250 50 0 empty empty empty 17 7 0 10 -262144 -1
-1;
#X obj 467 139 print;
#X obj 64 217 print;
#X floatatom 69 90 5 0 0 0 - - -;
#N canvas 2291 228 448 456 list-stepper 0;
#X obj 141 99 list;
#X obj 141 145 list split;
#X obj 221 47 inlet;
#X obj 141 64 t b f;
#X obj 142 19 inlet;
#X obj 133 345 outlet;
#X obj 172 224 list length;
#X obj 140 188 t l l;
#X obj 136 275 list split;
#X connect 0 0 1 0;
#X connect 1 0 7 0;
#X connect 2 0 0 1;
#X connect 3 0 0 0;
#X connect 3 1 1 1;
#X connect 4 0 3 0;
#X connect 7 1 6 0;
#X restore 460 237 pd list-stepper;
#X obj 66 167 list store;
#X obj 155 200 print fails;
#X msg 185 81 track1.wav track2.wav track3.wav;
#X msg 68 124 get \$1 1;
#X connect 0 0 3 0;
#X connect 1 0 0 0;
#X connect 2 0 0 0;
#X connect 5 0 10 0;
#X connect 7 0 4 0;
#X connect 7 1 8 0;
#X connect 9 0 7 1;
#X connect 10 0 7 0;
#X restore 1397 121 pd list dev;
#X obj 68 195 print sentBytes;
#X obj 538 462 table clicks;
#X obj 538 434 table keys;
#X msg 389 351 read -resize CELESTA_A#3.aif keys;
#X connect 0 0 92 0;
#X connect 1 0 2 0;
#X connect 2 0 68 1;
#X connect 6 0 5 1;
#X connect 7 0 6 0;
#X connect 8 0 6 0;
#X connect 12 0 23 0;
#X connect 14 0 23 0;
#X connect 16 0 23 0;
#X connect 20 0 21 0;
#X connect 22 0 27 0;
#X connect 22 0 27 1;
#X connect 23 0 5 0;
#X connect 23 1 18 0;
#X connect 24 0 22 1;
#X connect 25 0 24 0;
#X connect 26 0 49 0;
#X connect 26 0 25 0;
#X connect 28 0 1 0;
#X connect 29 0 35 0;
#X connect 29 1 36 0;
#X connect 30 0 29 0;
#X connect 31 0 29 0;
#X connect 33 0 29 0;
#X connect 38 0 37 0;
#X connect 39 0 38 0;
#X connect 40 0 38 0;
#X connect 41 0 42 0;
#X connect 42 0 89 0;
#X connect 42 1 47 0;
#X connect 43 0 44 0;
#X connect 44 0 46 0;
#X connect 46 0 42 0;
#X connect 47 0 45 0;
#X connect 47 0 84 0;
#X connect 48 0 44 0;
#X connect 51 0 50 0;
#X connect 51 0 70 0;
#X connect 52 0 22 0;
#X connect 52 1 67 0;
#X connect 53 0 55 0;
#X connect 54 0 56 0;
#X connect 55 0 54 0;
#X connect 56 0 60 0;
#X connect 56 0 63 1;
#X connect 57 0 59 0;
#X connect 58 0 57 0;
#X connect 59 0 62 0;
#X connect 60 0 61 0;
#X connect 61 0 63 0;
#X connect 62 0 60 1;
#X connect 63 0 65 0;
#X connect 64 0 51 0;
#X connect 65 0 64 0;
#X connect 66 0 54 0;
#X connect 68 0 52 0;
#X connect 69 0 68 0;
#X connect 70 0 71 0;
#X connect 72 0 70 0;
#X connect 73 0 72 0;
#X connect 74 0 77 0;
#X connect 75 0 74 0;
#X connect 76 0 75 0;
#X connect 77 0 78 0;
#X connect 79 0 41 0;
#X connect 84 0 69 0;
#X connect 84 1 26 0;
#X connect 85 0 64 0;
#X connect 85 1 51 0;
#X connect 86 0 85 0;
#X connect 92 0 1 0;
